G04 PROTEUS GERBER X2 FILE*
%TF.GenerationSoftware,Labcenter,Proteus,8.10-SP3-Build29560*%
%TF.CreationDate,2021-05-28T10:11:14+00:00*%
%TF.FileFunction,AssemblyDrawing,Top*%
%TF.FilePolarity,Positive*%
%TF.Part,Single*%
%TF.SameCoordinates,{1a505028-ee0b-4b35-8f16-4c51c6c7aedb}*%
%FSLAX45Y45*%
%MOMM*%
G01*
%TA.AperFunction,Material*%
%ADD15C,0.203200*%
%ADD71C,1.219200*%
%ADD20C,0.314280*%
%ADD17C,0.152400*%
%ADD21C,0.115140*%
%TA.AperFunction,Profile*%
%ADD14C,0.203200*%
%TD.AperFunction*%
D15*
X-5842160Y+11019840D02*
X-4805840Y+11019840D01*
X-4805840Y+12056160D01*
X-5842160Y+12056160D01*
X-5842160Y+11019840D01*
D71*
X-5324000Y+11792000D02*
X-5324000Y+11792000D01*
D20*
X-5748279Y+11344011D02*
X-5748279Y+11312583D01*
X-5712923Y+11281155D01*
X-5571496Y+11281155D01*
X-5536140Y+11312583D01*
X-5536140Y+11469724D01*
X-5430070Y+11438296D02*
X-5394713Y+11469724D01*
X-5288643Y+11469724D01*
X-5253287Y+11438296D01*
X-5253287Y+11406868D01*
X-5288643Y+11375440D01*
X-5253287Y+11344011D01*
X-5253287Y+11312583D01*
X-5288643Y+11281155D01*
X-5394713Y+11281155D01*
X-5430070Y+11312583D01*
X-5359357Y+11375440D02*
X-5288643Y+11375440D01*
X-4970434Y+11406868D02*
X-5005790Y+11375440D01*
X-5111860Y+11375440D01*
X-5147217Y+11406868D01*
X-5147217Y+11438296D01*
X-5111860Y+11469724D01*
X-5005790Y+11469724D01*
X-4970434Y+11438296D01*
X-4970434Y+11312583D01*
X-5005790Y+11281155D01*
X-5111860Y+11281155D01*
D15*
X-5842160Y+9995840D02*
X-4805840Y+9995840D01*
X-4805840Y+11032160D01*
X-5842160Y+11032160D01*
X-5842160Y+9995840D01*
D71*
X-5324000Y+10768000D02*
X-5324000Y+10768000D01*
D20*
X-5748279Y+10320011D02*
X-5748279Y+10288583D01*
X-5712923Y+10257155D01*
X-5571496Y+10257155D01*
X-5536140Y+10288583D01*
X-5536140Y+10445724D01*
X-5253287Y+10320011D02*
X-5465426Y+10320011D01*
X-5324000Y+10445724D01*
X-5324000Y+10257155D01*
X-5182573Y+10288583D02*
X-5182573Y+10414296D01*
X-5147217Y+10445724D01*
X-5005790Y+10445724D01*
X-4970434Y+10414296D01*
X-4970434Y+10288583D01*
X-5005790Y+10257155D01*
X-5147217Y+10257155D01*
X-5182573Y+10288583D01*
X-5182573Y+10257155D02*
X-4970434Y+10445724D01*
D15*
X-5842160Y+8971840D02*
X-4805840Y+8971840D01*
X-4805840Y+10008160D01*
X-5842160Y+10008160D01*
X-5842160Y+8971840D01*
D71*
X-5324000Y+9744000D02*
X-5324000Y+9744000D01*
D20*
X-5748279Y+9296011D02*
X-5748279Y+9264583D01*
X-5712923Y+9233155D01*
X-5571496Y+9233155D01*
X-5536140Y+9264583D01*
X-5536140Y+9421724D01*
X-5253287Y+9296011D02*
X-5465426Y+9296011D01*
X-5324000Y+9421724D01*
X-5324000Y+9233155D01*
X-5111860Y+9358868D02*
X-5041147Y+9421724D01*
X-5041147Y+9233155D01*
D15*
X-5842160Y+7947840D02*
X-4805840Y+7947840D01*
X-4805840Y+8984160D01*
X-5842160Y+8984160D01*
X-5842160Y+7947840D01*
D71*
X-5324000Y+8720000D02*
X-5324000Y+8720000D01*
D20*
X-5748279Y+8272011D02*
X-5748279Y+8240583D01*
X-5712923Y+8209155D01*
X-5571496Y+8209155D01*
X-5536140Y+8240583D01*
X-5536140Y+8397724D01*
X-5253287Y+8272011D02*
X-5465426Y+8272011D01*
X-5324000Y+8397724D01*
X-5324000Y+8209155D01*
X-5147217Y+8366296D02*
X-5111860Y+8397724D01*
X-5005790Y+8397724D01*
X-4970434Y+8366296D01*
X-4970434Y+8334868D01*
X-5005790Y+8303440D01*
X-5111860Y+8303440D01*
X-5147217Y+8272011D01*
X-5147217Y+8209155D01*
X-4970434Y+8209155D01*
D15*
X-5842160Y+6923840D02*
X-4805840Y+6923840D01*
X-4805840Y+7960160D01*
X-5842160Y+7960160D01*
X-5842160Y+6923840D01*
D71*
X-5324000Y+7696000D02*
X-5324000Y+7696000D01*
D20*
X-5748279Y+7248011D02*
X-5748279Y+7216583D01*
X-5712923Y+7185155D01*
X-5571496Y+7185155D01*
X-5536140Y+7216583D01*
X-5536140Y+7373724D01*
X-5253287Y+7248011D02*
X-5465426Y+7248011D01*
X-5324000Y+7373724D01*
X-5324000Y+7185155D01*
X-5147217Y+7342296D02*
X-5111860Y+7373724D01*
X-5005790Y+7373724D01*
X-4970434Y+7342296D01*
X-4970434Y+7310868D01*
X-5005790Y+7279440D01*
X-4970434Y+7248011D01*
X-4970434Y+7216583D01*
X-5005790Y+7185155D01*
X-5111860Y+7185155D01*
X-5147217Y+7216583D01*
X-5076504Y+7279440D02*
X-5005790Y+7279440D01*
D15*
X-5842160Y+5899840D02*
X-4805840Y+5899840D01*
X-4805840Y+6936160D01*
X-5842160Y+6936160D01*
X-5842160Y+5899840D01*
D71*
X-5324000Y+6672000D02*
X-5324000Y+6672000D01*
D20*
X-5748279Y+6224011D02*
X-5748279Y+6192583D01*
X-5712923Y+6161155D01*
X-5571496Y+6161155D01*
X-5536140Y+6192583D01*
X-5536140Y+6349724D01*
X-5253287Y+6224011D02*
X-5465426Y+6224011D01*
X-5324000Y+6349724D01*
X-5324000Y+6161155D01*
X-4970434Y+6224011D02*
X-5182573Y+6224011D01*
X-5041147Y+6349724D01*
X-5041147Y+6161155D01*
D15*
X-5842160Y+4875840D02*
X-4805840Y+4875840D01*
X-4805840Y+5912160D01*
X-5842160Y+5912160D01*
X-5842160Y+4875840D01*
D71*
X-5324000Y+5648000D02*
X-5324000Y+5648000D01*
D20*
X-5748279Y+5200011D02*
X-5748279Y+5168583D01*
X-5712923Y+5137155D01*
X-5571496Y+5137155D01*
X-5536140Y+5168583D01*
X-5536140Y+5325724D01*
X-5253287Y+5200011D02*
X-5465426Y+5200011D01*
X-5324000Y+5325724D01*
X-5324000Y+5137155D01*
X-4970434Y+5325724D02*
X-5147217Y+5325724D01*
X-5147217Y+5262868D01*
X-5005790Y+5262868D01*
X-4970434Y+5231440D01*
X-4970434Y+5168583D01*
X-5005790Y+5137155D01*
X-5111860Y+5137155D01*
X-5147217Y+5168583D01*
D15*
X-5842160Y+3851840D02*
X-4805840Y+3851840D01*
X-4805840Y+4888160D01*
X-5842160Y+4888160D01*
X-5842160Y+3851840D01*
D71*
X-5324000Y+4624000D02*
X-5324000Y+4624000D01*
D20*
X-5748279Y+4176011D02*
X-5748279Y+4144583D01*
X-5712923Y+4113155D01*
X-5571496Y+4113155D01*
X-5536140Y+4144583D01*
X-5536140Y+4301724D01*
X-5253287Y+4176011D02*
X-5465426Y+4176011D01*
X-5324000Y+4301724D01*
X-5324000Y+4113155D01*
X-4970434Y+4270296D02*
X-5005790Y+4301724D01*
X-5111860Y+4301724D01*
X-5147217Y+4270296D01*
X-5147217Y+4144583D01*
X-5111860Y+4113155D01*
X-5005790Y+4113155D01*
X-4970434Y+4144583D01*
X-4970434Y+4176011D01*
X-5005790Y+4207440D01*
X-5147217Y+4207440D01*
D17*
X-10725400Y+9604740D02*
X-10473940Y+9604740D01*
X-10473940Y+9955260D01*
X-10725400Y+9955260D01*
X-10725400Y+9604740D01*
X-10473940Y+9604740D01*
X-10473940Y+9955260D01*
X-10725400Y+9955260D01*
X-10725400Y+9604740D01*
D21*
X-10588155Y+9676369D02*
X-10576640Y+9676369D01*
X-10565126Y+9689322D01*
X-10565126Y+9741138D01*
X-10576640Y+9754092D01*
X-10634213Y+9754092D01*
X-10611184Y+9805907D02*
X-10634213Y+9831815D01*
X-10565126Y+9831815D01*
D17*
X-10725400Y+9344740D02*
X-10473940Y+9344740D01*
X-10473940Y+9695260D01*
X-10725400Y+9695260D01*
X-10725400Y+9344740D01*
X-10473940Y+9344740D01*
X-10473940Y+9695260D01*
X-10725400Y+9695260D01*
X-10725400Y+9344740D01*
D21*
X-10588155Y+9416369D02*
X-10576640Y+9416369D01*
X-10565126Y+9429322D01*
X-10565126Y+9481138D01*
X-10576640Y+9494092D01*
X-10634213Y+9494092D01*
X-10622699Y+9532953D02*
X-10634213Y+9545907D01*
X-10634213Y+9584769D01*
X-10622699Y+9597723D01*
X-10611184Y+9597723D01*
X-10599670Y+9584769D01*
X-10599670Y+9545907D01*
X-10588155Y+9532953D01*
X-10565126Y+9532953D01*
X-10565126Y+9597723D01*
D17*
X-10725400Y+9084740D02*
X-10473940Y+9084740D01*
X-10473940Y+9435260D01*
X-10725400Y+9435260D01*
X-10725400Y+9084740D01*
X-10473940Y+9084740D01*
X-10473940Y+9435260D01*
X-10725400Y+9435260D01*
X-10725400Y+9084740D01*
D21*
X-10588155Y+9156369D02*
X-10576640Y+9156369D01*
X-10565126Y+9169322D01*
X-10565126Y+9221138D01*
X-10576640Y+9234092D01*
X-10634213Y+9234092D01*
X-10622699Y+9272953D02*
X-10634213Y+9285907D01*
X-10634213Y+9324769D01*
X-10622699Y+9337723D01*
X-10611184Y+9337723D01*
X-10599670Y+9324769D01*
X-10588155Y+9337723D01*
X-10576640Y+9337723D01*
X-10565126Y+9324769D01*
X-10565126Y+9285907D01*
X-10576640Y+9272953D01*
X-10599670Y+9298861D02*
X-10599670Y+9324769D01*
D17*
X-10725400Y+8824740D02*
X-10473940Y+8824740D01*
X-10473940Y+9175260D01*
X-10725400Y+9175260D01*
X-10725400Y+8824740D01*
X-10473940Y+8824740D01*
X-10473940Y+9175260D01*
X-10725400Y+9175260D01*
X-10725400Y+8824740D01*
D21*
X-10588155Y+8896369D02*
X-10576640Y+8896369D01*
X-10565126Y+8909322D01*
X-10565126Y+8961138D01*
X-10576640Y+8974092D01*
X-10634213Y+8974092D01*
X-10588155Y+9077723D02*
X-10588155Y+9000000D01*
X-10634213Y+9051815D01*
X-10565126Y+9051815D01*
D17*
X-10725400Y+8564740D02*
X-10473940Y+8564740D01*
X-10473940Y+8915260D01*
X-10725400Y+8915260D01*
X-10725400Y+8564740D01*
X-10473940Y+8564740D01*
X-10473940Y+8915260D01*
X-10725400Y+8915260D01*
X-10725400Y+8564740D01*
D21*
X-10588155Y+8636369D02*
X-10576640Y+8636369D01*
X-10565126Y+8649322D01*
X-10565126Y+8701138D01*
X-10576640Y+8714092D01*
X-10634213Y+8714092D01*
X-10634213Y+8817723D02*
X-10634213Y+8752953D01*
X-10611184Y+8752953D01*
X-10611184Y+8804769D01*
X-10599670Y+8817723D01*
X-10576640Y+8817723D01*
X-10565126Y+8804769D01*
X-10565126Y+8765907D01*
X-10576640Y+8752953D01*
D17*
X-10725400Y+8304740D02*
X-10473940Y+8304740D01*
X-10473940Y+8655260D01*
X-10725400Y+8655260D01*
X-10725400Y+8304740D01*
X-10473940Y+8304740D01*
X-10473940Y+8655260D01*
X-10725400Y+8655260D01*
X-10725400Y+8304740D01*
D21*
X-10588155Y+8376369D02*
X-10576640Y+8376369D01*
X-10565126Y+8389322D01*
X-10565126Y+8441138D01*
X-10576640Y+8454092D01*
X-10634213Y+8454092D01*
X-10622699Y+8557723D02*
X-10634213Y+8544769D01*
X-10634213Y+8505907D01*
X-10622699Y+8492953D01*
X-10576640Y+8492953D01*
X-10565126Y+8505907D01*
X-10565126Y+8544769D01*
X-10576640Y+8557723D01*
X-10588155Y+8557723D01*
X-10599670Y+8544769D01*
X-10599670Y+8492953D01*
D17*
X-10725400Y+8044740D02*
X-10473940Y+8044740D01*
X-10473940Y+8395260D01*
X-10725400Y+8395260D01*
X-10725400Y+8044740D01*
X-10473940Y+8044740D01*
X-10473940Y+8395260D01*
X-10725400Y+8395260D01*
X-10725400Y+8044740D01*
D21*
X-10588155Y+8116369D02*
X-10576640Y+8116369D01*
X-10565126Y+8129322D01*
X-10565126Y+8181138D01*
X-10576640Y+8194092D01*
X-10634213Y+8194092D01*
X-10634213Y+8232953D02*
X-10634213Y+8297723D01*
X-10622699Y+8297723D01*
X-10565126Y+8232953D01*
D17*
X-10725400Y+7784740D02*
X-10473940Y+7784740D01*
X-10473940Y+8135260D01*
X-10725400Y+8135260D01*
X-10725400Y+7784740D01*
X-10473940Y+7784740D01*
X-10473940Y+8135260D01*
X-10725400Y+8135260D01*
X-10725400Y+7784740D01*
D21*
X-10588155Y+7856369D02*
X-10576640Y+7856369D01*
X-10565126Y+7869322D01*
X-10565126Y+7921138D01*
X-10576640Y+7934092D01*
X-10634213Y+7934092D01*
X-10599670Y+7985907D02*
X-10611184Y+7972953D01*
X-10622699Y+7972953D01*
X-10634213Y+7985907D01*
X-10634213Y+8024769D01*
X-10622699Y+8037723D01*
X-10611184Y+8037723D01*
X-10599670Y+8024769D01*
X-10599670Y+7985907D01*
X-10588155Y+7972953D01*
X-10576640Y+7972953D01*
X-10565126Y+7985907D01*
X-10565126Y+8024769D01*
X-10576640Y+8037723D01*
X-10588155Y+8037723D01*
X-10599670Y+8024769D01*
D17*
X-10725400Y+7524740D02*
X-10473940Y+7524740D01*
X-10473940Y+7875260D01*
X-10725400Y+7875260D01*
X-10725400Y+7524740D01*
X-10473940Y+7524740D01*
X-10473940Y+7875260D01*
X-10725400Y+7875260D01*
X-10725400Y+7524740D01*
D21*
X-10588155Y+7596369D02*
X-10576640Y+7596369D01*
X-10565126Y+7609322D01*
X-10565126Y+7661138D01*
X-10576640Y+7674092D01*
X-10634213Y+7674092D01*
X-10611184Y+7777723D02*
X-10599670Y+7764769D01*
X-10599670Y+7725907D01*
X-10611184Y+7712953D01*
X-10622699Y+7712953D01*
X-10634213Y+7725907D01*
X-10634213Y+7764769D01*
X-10622699Y+7777723D01*
X-10576640Y+7777723D01*
X-10565126Y+7764769D01*
X-10565126Y+7725907D01*
D17*
X-10725400Y+7264740D02*
X-10473940Y+7264740D01*
X-10473940Y+7615260D01*
X-10725400Y+7615260D01*
X-10725400Y+7264740D01*
X-10473940Y+7264740D01*
X-10473940Y+7615260D01*
X-10725400Y+7615260D01*
X-10725400Y+7264740D01*
D21*
X-10588155Y+7284554D02*
X-10576640Y+7284554D01*
X-10565126Y+7297507D01*
X-10565126Y+7349323D01*
X-10576640Y+7362277D01*
X-10634213Y+7362277D01*
X-10611184Y+7414092D02*
X-10634213Y+7440000D01*
X-10565126Y+7440000D01*
X-10576640Y+7491816D02*
X-10622699Y+7491816D01*
X-10634213Y+7504769D01*
X-10634213Y+7556585D01*
X-10622699Y+7569539D01*
X-10576640Y+7569539D01*
X-10565126Y+7556585D01*
X-10565126Y+7504769D01*
X-10576640Y+7491816D01*
X-10565126Y+7491816D02*
X-10634213Y+7569539D01*
D17*
X-10725400Y+7004740D02*
X-10473940Y+7004740D01*
X-10473940Y+7355260D01*
X-10725400Y+7355260D01*
X-10725400Y+7004740D01*
X-10473940Y+7004740D01*
X-10473940Y+7355260D01*
X-10725400Y+7355260D01*
X-10725400Y+7004740D01*
D21*
X-10588155Y+7024554D02*
X-10576640Y+7024554D01*
X-10565126Y+7037507D01*
X-10565126Y+7089323D01*
X-10576640Y+7102277D01*
X-10634213Y+7102277D01*
X-10611184Y+7154092D02*
X-10634213Y+7180000D01*
X-10565126Y+7180000D01*
X-10611184Y+7257723D02*
X-10634213Y+7283631D01*
X-10565126Y+7283631D01*
D17*
X-10725400Y+6744740D02*
X-10473940Y+6744740D01*
X-10473940Y+7095260D01*
X-10725400Y+7095260D01*
X-10725400Y+6744740D01*
X-10473940Y+6744740D01*
X-10473940Y+7095260D01*
X-10725400Y+7095260D01*
X-10725400Y+6744740D01*
D21*
X-10588155Y+6764554D02*
X-10576640Y+6764554D01*
X-10565126Y+6777507D01*
X-10565126Y+6829323D01*
X-10576640Y+6842277D01*
X-10634213Y+6842277D01*
X-10611184Y+6894092D02*
X-10634213Y+6920000D01*
X-10565126Y+6920000D01*
X-10622699Y+6984769D02*
X-10634213Y+6997723D01*
X-10634213Y+7036585D01*
X-10622699Y+7049539D01*
X-10611184Y+7049539D01*
X-10599670Y+7036585D01*
X-10599670Y+6997723D01*
X-10588155Y+6984769D01*
X-10565126Y+6984769D01*
X-10565126Y+7049539D01*
D17*
X-10725400Y+6484740D02*
X-10473940Y+6484740D01*
X-10473940Y+6835260D01*
X-10725400Y+6835260D01*
X-10725400Y+6484740D01*
X-10473940Y+6484740D01*
X-10473940Y+6835260D01*
X-10725400Y+6835260D01*
X-10725400Y+6484740D01*
D21*
X-10588155Y+6504554D02*
X-10576640Y+6504554D01*
X-10565126Y+6517507D01*
X-10565126Y+6569323D01*
X-10576640Y+6582277D01*
X-10634213Y+6582277D01*
X-10611184Y+6634092D02*
X-10634213Y+6660000D01*
X-10565126Y+6660000D01*
X-10622699Y+6724769D02*
X-10634213Y+6737723D01*
X-10634213Y+6776585D01*
X-10622699Y+6789539D01*
X-10611184Y+6789539D01*
X-10599670Y+6776585D01*
X-10588155Y+6789539D01*
X-10576640Y+6789539D01*
X-10565126Y+6776585D01*
X-10565126Y+6737723D01*
X-10576640Y+6724769D01*
X-10599670Y+6750677D02*
X-10599670Y+6776585D01*
D17*
X-10725400Y+6224740D02*
X-10473940Y+6224740D01*
X-10473940Y+6575260D01*
X-10725400Y+6575260D01*
X-10725400Y+6224740D01*
X-10473940Y+6224740D01*
X-10473940Y+6575260D01*
X-10725400Y+6575260D01*
X-10725400Y+6224740D01*
D21*
X-10588155Y+6244554D02*
X-10576640Y+6244554D01*
X-10565126Y+6257507D01*
X-10565126Y+6309323D01*
X-10576640Y+6322277D01*
X-10634213Y+6322277D01*
X-10611184Y+6374092D02*
X-10634213Y+6400000D01*
X-10565126Y+6400000D01*
X-10588155Y+6529539D02*
X-10588155Y+6451816D01*
X-10634213Y+6503631D01*
X-10565126Y+6503631D01*
D17*
X-10725400Y+5964740D02*
X-10473940Y+5964740D01*
X-10473940Y+6315260D01*
X-10725400Y+6315260D01*
X-10725400Y+5964740D01*
X-10473940Y+5964740D01*
X-10473940Y+6315260D01*
X-10725400Y+6315260D01*
X-10725400Y+5964740D01*
D21*
X-10588155Y+5984554D02*
X-10576640Y+5984554D01*
X-10565126Y+5997507D01*
X-10565126Y+6049323D01*
X-10576640Y+6062277D01*
X-10634213Y+6062277D01*
X-10611184Y+6114092D02*
X-10634213Y+6140000D01*
X-10565126Y+6140000D01*
X-10634213Y+6269539D02*
X-10634213Y+6204769D01*
X-10611184Y+6204769D01*
X-10611184Y+6256585D01*
X-10599670Y+6269539D01*
X-10576640Y+6269539D01*
X-10565126Y+6256585D01*
X-10565126Y+6217723D01*
X-10576640Y+6204769D01*
D17*
X-8134600Y+9955260D02*
X-8386060Y+9955260D01*
X-8386060Y+9604740D01*
X-8134600Y+9604740D01*
X-8134600Y+9955260D01*
X-8386060Y+9955260D01*
X-8386060Y+9604740D01*
X-8134600Y+9604740D01*
X-8134600Y+9955260D01*
D21*
X-8248815Y+9624554D02*
X-8237300Y+9624554D01*
X-8225786Y+9637507D01*
X-8225786Y+9689323D01*
X-8237300Y+9702277D01*
X-8294873Y+9702277D01*
X-8271844Y+9754092D02*
X-8294873Y+9780000D01*
X-8225786Y+9780000D01*
X-8283359Y+9909539D02*
X-8294873Y+9896585D01*
X-8294873Y+9857723D01*
X-8283359Y+9844769D01*
X-8237300Y+9844769D01*
X-8225786Y+9857723D01*
X-8225786Y+9896585D01*
X-8237300Y+9909539D01*
X-8248815Y+9909539D01*
X-8260330Y+9896585D01*
X-8260330Y+9844769D01*
D17*
X-8134600Y+9695260D02*
X-8386060Y+9695260D01*
X-8386060Y+9344740D01*
X-8134600Y+9344740D01*
X-8134600Y+9695260D01*
X-8386060Y+9695260D01*
X-8386060Y+9344740D01*
X-8134600Y+9344740D01*
X-8134600Y+9695260D01*
D21*
X-8248815Y+9364554D02*
X-8237300Y+9364554D01*
X-8225786Y+9377507D01*
X-8225786Y+9429323D01*
X-8237300Y+9442277D01*
X-8294873Y+9442277D01*
X-8271844Y+9494092D02*
X-8294873Y+9520000D01*
X-8225786Y+9520000D01*
X-8294873Y+9584769D02*
X-8294873Y+9649539D01*
X-8283359Y+9649539D01*
X-8225786Y+9584769D01*
D17*
X-8134600Y+9435260D02*
X-8386060Y+9435260D01*
X-8386060Y+9084740D01*
X-8134600Y+9084740D01*
X-8134600Y+9435260D01*
X-8386060Y+9435260D01*
X-8386060Y+9084740D01*
X-8134600Y+9084740D01*
X-8134600Y+9435260D01*
D21*
X-8248815Y+9104554D02*
X-8237300Y+9104554D01*
X-8225786Y+9117507D01*
X-8225786Y+9169323D01*
X-8237300Y+9182277D01*
X-8294873Y+9182277D01*
X-8271844Y+9234092D02*
X-8294873Y+9260000D01*
X-8225786Y+9260000D01*
X-8260330Y+9337723D02*
X-8271844Y+9324769D01*
X-8283359Y+9324769D01*
X-8294873Y+9337723D01*
X-8294873Y+9376585D01*
X-8283359Y+9389539D01*
X-8271844Y+9389539D01*
X-8260330Y+9376585D01*
X-8260330Y+9337723D01*
X-8248815Y+9324769D01*
X-8237300Y+9324769D01*
X-8225786Y+9337723D01*
X-8225786Y+9376585D01*
X-8237300Y+9389539D01*
X-8248815Y+9389539D01*
X-8260330Y+9376585D01*
D17*
X-8134600Y+9175260D02*
X-8386060Y+9175260D01*
X-8386060Y+8824740D01*
X-8134600Y+8824740D01*
X-8134600Y+9175260D01*
X-8386060Y+9175260D01*
X-8386060Y+8824740D01*
X-8134600Y+8824740D01*
X-8134600Y+9175260D01*
D21*
X-8248815Y+8844554D02*
X-8237300Y+8844554D01*
X-8225786Y+8857507D01*
X-8225786Y+8909323D01*
X-8237300Y+8922277D01*
X-8294873Y+8922277D01*
X-8271844Y+8974092D02*
X-8294873Y+9000000D01*
X-8225786Y+9000000D01*
X-8271844Y+9129539D02*
X-8260330Y+9116585D01*
X-8260330Y+9077723D01*
X-8271844Y+9064769D01*
X-8283359Y+9064769D01*
X-8294873Y+9077723D01*
X-8294873Y+9116585D01*
X-8283359Y+9129539D01*
X-8237300Y+9129539D01*
X-8225786Y+9116585D01*
X-8225786Y+9077723D01*
D17*
X-8134600Y+8915260D02*
X-8386060Y+8915260D01*
X-8386060Y+8564740D01*
X-8134600Y+8564740D01*
X-8134600Y+8915260D01*
X-8386060Y+8915260D01*
X-8386060Y+8564740D01*
X-8134600Y+8564740D01*
X-8134600Y+8915260D01*
D21*
X-8248815Y+8584554D02*
X-8237300Y+8584554D01*
X-8225786Y+8597507D01*
X-8225786Y+8649323D01*
X-8237300Y+8662277D01*
X-8294873Y+8662277D01*
X-8283359Y+8701138D02*
X-8294873Y+8714092D01*
X-8294873Y+8752954D01*
X-8283359Y+8765908D01*
X-8271844Y+8765908D01*
X-8260330Y+8752954D01*
X-8260330Y+8714092D01*
X-8248815Y+8701138D01*
X-8225786Y+8701138D01*
X-8225786Y+8765908D01*
X-8237300Y+8791816D02*
X-8283359Y+8791816D01*
X-8294873Y+8804769D01*
X-8294873Y+8856585D01*
X-8283359Y+8869539D01*
X-8237300Y+8869539D01*
X-8225786Y+8856585D01*
X-8225786Y+8804769D01*
X-8237300Y+8791816D01*
X-8225786Y+8791816D02*
X-8294873Y+8869539D01*
D17*
X-8134600Y+8655260D02*
X-8386060Y+8655260D01*
X-8386060Y+8304740D01*
X-8134600Y+8304740D01*
X-8134600Y+8655260D01*
X-8386060Y+8655260D01*
X-8386060Y+8304740D01*
X-8134600Y+8304740D01*
X-8134600Y+8655260D01*
D21*
X-8248815Y+8324554D02*
X-8237300Y+8324554D01*
X-8225786Y+8337507D01*
X-8225786Y+8389323D01*
X-8237300Y+8402277D01*
X-8294873Y+8402277D01*
X-8283359Y+8441138D02*
X-8294873Y+8454092D01*
X-8294873Y+8492954D01*
X-8283359Y+8505908D01*
X-8271844Y+8505908D01*
X-8260330Y+8492954D01*
X-8260330Y+8454092D01*
X-8248815Y+8441138D01*
X-8225786Y+8441138D01*
X-8225786Y+8505908D01*
X-8271844Y+8557723D02*
X-8294873Y+8583631D01*
X-8225786Y+8583631D01*
D17*
X-8134600Y+8395260D02*
X-8386060Y+8395260D01*
X-8386060Y+8044740D01*
X-8134600Y+8044740D01*
X-8134600Y+8395260D01*
X-8386060Y+8395260D01*
X-8386060Y+8044740D01*
X-8134600Y+8044740D01*
X-8134600Y+8395260D01*
D21*
X-8248815Y+8064554D02*
X-8237300Y+8064554D01*
X-8225786Y+8077507D01*
X-8225786Y+8129323D01*
X-8237300Y+8142277D01*
X-8294873Y+8142277D01*
X-8283359Y+8181138D02*
X-8294873Y+8194092D01*
X-8294873Y+8232954D01*
X-8283359Y+8245908D01*
X-8271844Y+8245908D01*
X-8260330Y+8232954D01*
X-8260330Y+8194092D01*
X-8248815Y+8181138D01*
X-8225786Y+8181138D01*
X-8225786Y+8245908D01*
X-8283359Y+8284769D02*
X-8294873Y+8297723D01*
X-8294873Y+8336585D01*
X-8283359Y+8349539D01*
X-8271844Y+8349539D01*
X-8260330Y+8336585D01*
X-8260330Y+8297723D01*
X-8248815Y+8284769D01*
X-8225786Y+8284769D01*
X-8225786Y+8349539D01*
D17*
X-8134600Y+8135260D02*
X-8386060Y+8135260D01*
X-8386060Y+7784740D01*
X-8134600Y+7784740D01*
X-8134600Y+8135260D01*
X-8386060Y+8135260D01*
X-8386060Y+7784740D01*
X-8134600Y+7784740D01*
X-8134600Y+8135260D01*
D21*
X-8248815Y+7804554D02*
X-8237300Y+7804554D01*
X-8225786Y+7817507D01*
X-8225786Y+7869323D01*
X-8237300Y+7882277D01*
X-8294873Y+7882277D01*
X-8283359Y+7921138D02*
X-8294873Y+7934092D01*
X-8294873Y+7972954D01*
X-8283359Y+7985908D01*
X-8271844Y+7985908D01*
X-8260330Y+7972954D01*
X-8260330Y+7934092D01*
X-8248815Y+7921138D01*
X-8225786Y+7921138D01*
X-8225786Y+7985908D01*
X-8283359Y+8024769D02*
X-8294873Y+8037723D01*
X-8294873Y+8076585D01*
X-8283359Y+8089539D01*
X-8271844Y+8089539D01*
X-8260330Y+8076585D01*
X-8248815Y+8089539D01*
X-8237300Y+8089539D01*
X-8225786Y+8076585D01*
X-8225786Y+8037723D01*
X-8237300Y+8024769D01*
X-8260330Y+8050677D02*
X-8260330Y+8076585D01*
D17*
X-8134600Y+7875260D02*
X-8386060Y+7875260D01*
X-8386060Y+7524740D01*
X-8134600Y+7524740D01*
X-8134600Y+7875260D01*
X-8386060Y+7875260D01*
X-8386060Y+7524740D01*
X-8134600Y+7524740D01*
X-8134600Y+7875260D01*
D21*
X-8248815Y+7544554D02*
X-8237300Y+7544554D01*
X-8225786Y+7557507D01*
X-8225786Y+7609323D01*
X-8237300Y+7622277D01*
X-8294873Y+7622277D01*
X-8283359Y+7661138D02*
X-8294873Y+7674092D01*
X-8294873Y+7712954D01*
X-8283359Y+7725908D01*
X-8271844Y+7725908D01*
X-8260330Y+7712954D01*
X-8260330Y+7674092D01*
X-8248815Y+7661138D01*
X-8225786Y+7661138D01*
X-8225786Y+7725908D01*
X-8248815Y+7829539D02*
X-8248815Y+7751816D01*
X-8294873Y+7803631D01*
X-8225786Y+7803631D01*
D17*
X-8134600Y+7615260D02*
X-8386060Y+7615260D01*
X-8386060Y+7264740D01*
X-8134600Y+7264740D01*
X-8134600Y+7615260D01*
X-8386060Y+7615260D01*
X-8386060Y+7264740D01*
X-8134600Y+7264740D01*
X-8134600Y+7615260D01*
D21*
X-8248815Y+7284554D02*
X-8237300Y+7284554D01*
X-8225786Y+7297507D01*
X-8225786Y+7349323D01*
X-8237300Y+7362277D01*
X-8294873Y+7362277D01*
X-8283359Y+7401138D02*
X-8294873Y+7414092D01*
X-8294873Y+7452954D01*
X-8283359Y+7465908D01*
X-8271844Y+7465908D01*
X-8260330Y+7452954D01*
X-8260330Y+7414092D01*
X-8248815Y+7401138D01*
X-8225786Y+7401138D01*
X-8225786Y+7465908D01*
X-8294873Y+7569539D02*
X-8294873Y+7504769D01*
X-8271844Y+7504769D01*
X-8271844Y+7556585D01*
X-8260330Y+7569539D01*
X-8237300Y+7569539D01*
X-8225786Y+7556585D01*
X-8225786Y+7517723D01*
X-8237300Y+7504769D01*
D17*
X-8134600Y+7355260D02*
X-8386060Y+7355260D01*
X-8386060Y+7004740D01*
X-8134600Y+7004740D01*
X-8134600Y+7355260D01*
X-8386060Y+7355260D01*
X-8386060Y+7004740D01*
X-8134600Y+7004740D01*
X-8134600Y+7355260D01*
D21*
X-8248815Y+7024554D02*
X-8237300Y+7024554D01*
X-8225786Y+7037507D01*
X-8225786Y+7089323D01*
X-8237300Y+7102277D01*
X-8294873Y+7102277D01*
X-8283359Y+7141138D02*
X-8294873Y+7154092D01*
X-8294873Y+7192954D01*
X-8283359Y+7205908D01*
X-8271844Y+7205908D01*
X-8260330Y+7192954D01*
X-8260330Y+7154092D01*
X-8248815Y+7141138D01*
X-8225786Y+7141138D01*
X-8225786Y+7205908D01*
X-8283359Y+7309539D02*
X-8294873Y+7296585D01*
X-8294873Y+7257723D01*
X-8283359Y+7244769D01*
X-8237300Y+7244769D01*
X-8225786Y+7257723D01*
X-8225786Y+7296585D01*
X-8237300Y+7309539D01*
X-8248815Y+7309539D01*
X-8260330Y+7296585D01*
X-8260330Y+7244769D01*
D17*
X-8134600Y+7095260D02*
X-8386060Y+7095260D01*
X-8386060Y+6744740D01*
X-8134600Y+6744740D01*
X-8134600Y+7095260D01*
X-8386060Y+7095260D01*
X-8386060Y+6744740D01*
X-8134600Y+6744740D01*
X-8134600Y+7095260D01*
D21*
X-8248815Y+6764554D02*
X-8237300Y+6764554D01*
X-8225786Y+6777507D01*
X-8225786Y+6829323D01*
X-8237300Y+6842277D01*
X-8294873Y+6842277D01*
X-8283359Y+6881138D02*
X-8294873Y+6894092D01*
X-8294873Y+6932954D01*
X-8283359Y+6945908D01*
X-8271844Y+6945908D01*
X-8260330Y+6932954D01*
X-8260330Y+6894092D01*
X-8248815Y+6881138D01*
X-8225786Y+6881138D01*
X-8225786Y+6945908D01*
X-8294873Y+6984769D02*
X-8294873Y+7049539D01*
X-8283359Y+7049539D01*
X-8225786Y+6984769D01*
D17*
X-8134600Y+6835260D02*
X-8386060Y+6835260D01*
X-8386060Y+6484740D01*
X-8134600Y+6484740D01*
X-8134600Y+6835260D01*
X-8386060Y+6835260D01*
X-8386060Y+6484740D01*
X-8134600Y+6484740D01*
X-8134600Y+6835260D01*
D21*
X-8248815Y+6504554D02*
X-8237300Y+6504554D01*
X-8225786Y+6517507D01*
X-8225786Y+6569323D01*
X-8237300Y+6582277D01*
X-8294873Y+6582277D01*
X-8283359Y+6621138D02*
X-8294873Y+6634092D01*
X-8294873Y+6672954D01*
X-8283359Y+6685908D01*
X-8271844Y+6685908D01*
X-8260330Y+6672954D01*
X-8260330Y+6634092D01*
X-8248815Y+6621138D01*
X-8225786Y+6621138D01*
X-8225786Y+6685908D01*
X-8260330Y+6737723D02*
X-8271844Y+6724769D01*
X-8283359Y+6724769D01*
X-8294873Y+6737723D01*
X-8294873Y+6776585D01*
X-8283359Y+6789539D01*
X-8271844Y+6789539D01*
X-8260330Y+6776585D01*
X-8260330Y+6737723D01*
X-8248815Y+6724769D01*
X-8237300Y+6724769D01*
X-8225786Y+6737723D01*
X-8225786Y+6776585D01*
X-8237300Y+6789539D01*
X-8248815Y+6789539D01*
X-8260330Y+6776585D01*
D17*
X-8134600Y+6575260D02*
X-8386060Y+6575260D01*
X-8386060Y+6224740D01*
X-8134600Y+6224740D01*
X-8134600Y+6575260D01*
X-8386060Y+6575260D01*
X-8386060Y+6224740D01*
X-8134600Y+6224740D01*
X-8134600Y+6575260D01*
D21*
X-8248815Y+6244554D02*
X-8237300Y+6244554D01*
X-8225786Y+6257507D01*
X-8225786Y+6309323D01*
X-8237300Y+6322277D01*
X-8294873Y+6322277D01*
X-8283359Y+6361138D02*
X-8294873Y+6374092D01*
X-8294873Y+6412954D01*
X-8283359Y+6425908D01*
X-8271844Y+6425908D01*
X-8260330Y+6412954D01*
X-8260330Y+6374092D01*
X-8248815Y+6361138D01*
X-8225786Y+6361138D01*
X-8225786Y+6425908D01*
X-8271844Y+6529539D02*
X-8260330Y+6516585D01*
X-8260330Y+6477723D01*
X-8271844Y+6464769D01*
X-8283359Y+6464769D01*
X-8294873Y+6477723D01*
X-8294873Y+6516585D01*
X-8283359Y+6529539D01*
X-8237300Y+6529539D01*
X-8225786Y+6516585D01*
X-8225786Y+6477723D01*
D17*
X-8134600Y+6315260D02*
X-8386060Y+6315260D01*
X-8386060Y+5964740D01*
X-8134600Y+5964740D01*
X-8134600Y+6315260D01*
X-8386060Y+6315260D01*
X-8386060Y+5964740D01*
X-8134600Y+5964740D01*
X-8134600Y+6315260D01*
D21*
X-8248815Y+5984554D02*
X-8237300Y+5984554D01*
X-8225786Y+5997507D01*
X-8225786Y+6049323D01*
X-8237300Y+6062277D01*
X-8294873Y+6062277D01*
X-8283359Y+6101138D02*
X-8294873Y+6114092D01*
X-8294873Y+6152954D01*
X-8283359Y+6165908D01*
X-8271844Y+6165908D01*
X-8260330Y+6152954D01*
X-8248815Y+6165908D01*
X-8237300Y+6165908D01*
X-8225786Y+6152954D01*
X-8225786Y+6114092D01*
X-8237300Y+6101138D01*
X-8260330Y+6127046D02*
X-8260330Y+6152954D01*
X-8237300Y+6191816D02*
X-8283359Y+6191816D01*
X-8294873Y+6204769D01*
X-8294873Y+6256585D01*
X-8283359Y+6269539D01*
X-8237300Y+6269539D01*
X-8225786Y+6256585D01*
X-8225786Y+6204769D01*
X-8237300Y+6191816D01*
X-8225786Y+6191816D02*
X-8294873Y+6269539D01*
D14*
X-14420000Y+3640000D02*
X-4480000Y+3640000D01*
X-4480000Y+12440000D01*
X-14420000Y+12440000D01*
X-14420000Y+3640000D01*
D15*
X-14038160Y+11075840D02*
X-13001840Y+11075840D01*
X-13001840Y+12112160D01*
X-14038160Y+12112160D01*
X-14038160Y+11075840D01*
D71*
X-13520000Y+11848000D02*
X-13520000Y+11848000D01*
D20*
X-13944279Y+11400011D02*
X-13944279Y+11368583D01*
X-13908923Y+11337155D01*
X-13767496Y+11337155D01*
X-13732140Y+11368583D01*
X-13732140Y+11525724D01*
X-13626070Y+11494296D02*
X-13590713Y+11525724D01*
X-13484643Y+11525724D01*
X-13449287Y+11494296D01*
X-13449287Y+11462868D01*
X-13484643Y+11431440D01*
X-13449287Y+11400011D01*
X-13449287Y+11368583D01*
X-13484643Y+11337155D01*
X-13590713Y+11337155D01*
X-13626070Y+11368583D01*
X-13555357Y+11431440D02*
X-13484643Y+11431440D01*
X-13307860Y+11462868D02*
X-13237147Y+11525724D01*
X-13237147Y+11337155D01*
D15*
X-14038160Y+10067840D02*
X-13001840Y+10067840D01*
X-13001840Y+11104160D01*
X-14038160Y+11104160D01*
X-14038160Y+10067840D01*
D71*
X-13520000Y+10840000D02*
X-13520000Y+10840000D01*
D20*
X-13944279Y+10392011D02*
X-13944279Y+10360583D01*
X-13908923Y+10329155D01*
X-13767496Y+10329155D01*
X-13732140Y+10360583D01*
X-13732140Y+10517724D01*
X-13626070Y+10486296D02*
X-13590713Y+10517724D01*
X-13484643Y+10517724D01*
X-13449287Y+10486296D01*
X-13449287Y+10454868D01*
X-13484643Y+10423440D01*
X-13449287Y+10392011D01*
X-13449287Y+10360583D01*
X-13484643Y+10329155D01*
X-13590713Y+10329155D01*
X-13626070Y+10360583D01*
X-13555357Y+10423440D02*
X-13484643Y+10423440D01*
X-13343217Y+10486296D02*
X-13307860Y+10517724D01*
X-13201790Y+10517724D01*
X-13166434Y+10486296D01*
X-13166434Y+10454868D01*
X-13201790Y+10423440D01*
X-13307860Y+10423440D01*
X-13343217Y+10392011D01*
X-13343217Y+10329155D01*
X-13166434Y+10329155D01*
D15*
X-14038160Y+9067840D02*
X-13001840Y+9067840D01*
X-13001840Y+10104160D01*
X-14038160Y+10104160D01*
X-14038160Y+9067840D01*
D71*
X-13520000Y+9840000D02*
X-13520000Y+9840000D01*
D20*
X-13944279Y+9392011D02*
X-13944279Y+9360583D01*
X-13908923Y+9329155D01*
X-13767496Y+9329155D01*
X-13732140Y+9360583D01*
X-13732140Y+9517724D01*
X-13626070Y+9486296D02*
X-13590713Y+9517724D01*
X-13484643Y+9517724D01*
X-13449287Y+9486296D01*
X-13449287Y+9454868D01*
X-13484643Y+9423440D01*
X-13449287Y+9392011D01*
X-13449287Y+9360583D01*
X-13484643Y+9329155D01*
X-13590713Y+9329155D01*
X-13626070Y+9360583D01*
X-13555357Y+9423440D02*
X-13484643Y+9423440D01*
X-13343217Y+9486296D02*
X-13307860Y+9517724D01*
X-13201790Y+9517724D01*
X-13166434Y+9486296D01*
X-13166434Y+9454868D01*
X-13201790Y+9423440D01*
X-13166434Y+9392011D01*
X-13166434Y+9360583D01*
X-13201790Y+9329155D01*
X-13307860Y+9329155D01*
X-13343217Y+9360583D01*
X-13272504Y+9423440D02*
X-13201790Y+9423440D01*
D15*
X-14038160Y+8067840D02*
X-13001840Y+8067840D01*
X-13001840Y+9104160D01*
X-14038160Y+9104160D01*
X-14038160Y+8067840D01*
D71*
X-13520000Y+8840000D02*
X-13520000Y+8840000D01*
D20*
X-13944279Y+8392011D02*
X-13944279Y+8360583D01*
X-13908923Y+8329155D01*
X-13767496Y+8329155D01*
X-13732140Y+8360583D01*
X-13732140Y+8517724D01*
X-13626070Y+8486296D02*
X-13590713Y+8517724D01*
X-13484643Y+8517724D01*
X-13449287Y+8486296D01*
X-13449287Y+8454868D01*
X-13484643Y+8423440D01*
X-13449287Y+8392011D01*
X-13449287Y+8360583D01*
X-13484643Y+8329155D01*
X-13590713Y+8329155D01*
X-13626070Y+8360583D01*
X-13555357Y+8423440D02*
X-13484643Y+8423440D01*
X-13166434Y+8392011D02*
X-13378573Y+8392011D01*
X-13237147Y+8517724D01*
X-13237147Y+8329155D01*
D15*
X-14038160Y+7067840D02*
X-13001840Y+7067840D01*
X-13001840Y+8104160D01*
X-14038160Y+8104160D01*
X-14038160Y+7067840D01*
D71*
X-13520000Y+7840000D02*
X-13520000Y+7840000D01*
D20*
X-13944279Y+7392011D02*
X-13944279Y+7360583D01*
X-13908923Y+7329155D01*
X-13767496Y+7329155D01*
X-13732140Y+7360583D01*
X-13732140Y+7517724D01*
X-13626070Y+7486296D02*
X-13590713Y+7517724D01*
X-13484643Y+7517724D01*
X-13449287Y+7486296D01*
X-13449287Y+7454868D01*
X-13484643Y+7423440D01*
X-13449287Y+7392011D01*
X-13449287Y+7360583D01*
X-13484643Y+7329155D01*
X-13590713Y+7329155D01*
X-13626070Y+7360583D01*
X-13555357Y+7423440D02*
X-13484643Y+7423440D01*
X-13166434Y+7517724D02*
X-13343217Y+7517724D01*
X-13343217Y+7454868D01*
X-13201790Y+7454868D01*
X-13166434Y+7423440D01*
X-13166434Y+7360583D01*
X-13201790Y+7329155D01*
X-13307860Y+7329155D01*
X-13343217Y+7360583D01*
D15*
X-14038160Y+6067840D02*
X-13001840Y+6067840D01*
X-13001840Y+7104160D01*
X-14038160Y+7104160D01*
X-14038160Y+6067840D01*
D71*
X-13520000Y+6840000D02*
X-13520000Y+6840000D01*
D20*
X-13944279Y+6392011D02*
X-13944279Y+6360583D01*
X-13908923Y+6329155D01*
X-13767496Y+6329155D01*
X-13732140Y+6360583D01*
X-13732140Y+6517724D01*
X-13626070Y+6486296D02*
X-13590713Y+6517724D01*
X-13484643Y+6517724D01*
X-13449287Y+6486296D01*
X-13449287Y+6454868D01*
X-13484643Y+6423440D01*
X-13449287Y+6392011D01*
X-13449287Y+6360583D01*
X-13484643Y+6329155D01*
X-13590713Y+6329155D01*
X-13626070Y+6360583D01*
X-13555357Y+6423440D02*
X-13484643Y+6423440D01*
X-13166434Y+6486296D02*
X-13201790Y+6517724D01*
X-13307860Y+6517724D01*
X-13343217Y+6486296D01*
X-13343217Y+6360583D01*
X-13307860Y+6329155D01*
X-13201790Y+6329155D01*
X-13166434Y+6360583D01*
X-13166434Y+6392011D01*
X-13201790Y+6423440D01*
X-13343217Y+6423440D01*
D15*
X-14038160Y+5067840D02*
X-13001840Y+5067840D01*
X-13001840Y+6104160D01*
X-14038160Y+6104160D01*
X-14038160Y+5067840D01*
D71*
X-13520000Y+5840000D02*
X-13520000Y+5840000D01*
D20*
X-13944279Y+5392011D02*
X-13944279Y+5360583D01*
X-13908923Y+5329155D01*
X-13767496Y+5329155D01*
X-13732140Y+5360583D01*
X-13732140Y+5517724D01*
X-13626070Y+5486296D02*
X-13590713Y+5517724D01*
X-13484643Y+5517724D01*
X-13449287Y+5486296D01*
X-13449287Y+5454868D01*
X-13484643Y+5423440D01*
X-13449287Y+5392011D01*
X-13449287Y+5360583D01*
X-13484643Y+5329155D01*
X-13590713Y+5329155D01*
X-13626070Y+5360583D01*
X-13555357Y+5423440D02*
X-13484643Y+5423440D01*
X-13343217Y+5517724D02*
X-13166434Y+5517724D01*
X-13166434Y+5486296D01*
X-13343217Y+5329155D01*
D15*
X-14038160Y+4067840D02*
X-13001840Y+4067840D01*
X-13001840Y+5104160D01*
X-14038160Y+5104160D01*
X-14038160Y+4067840D01*
D71*
X-13520000Y+4840000D02*
X-13520000Y+4840000D01*
D20*
X-13944279Y+4392011D02*
X-13944279Y+4360583D01*
X-13908923Y+4329155D01*
X-13767496Y+4329155D01*
X-13732140Y+4360583D01*
X-13732140Y+4517724D01*
X-13626070Y+4486296D02*
X-13590713Y+4517724D01*
X-13484643Y+4517724D01*
X-13449287Y+4486296D01*
X-13449287Y+4454868D01*
X-13484643Y+4423440D01*
X-13449287Y+4392011D01*
X-13449287Y+4360583D01*
X-13484643Y+4329155D01*
X-13590713Y+4329155D01*
X-13626070Y+4360583D01*
X-13555357Y+4423440D02*
X-13484643Y+4423440D01*
X-13307860Y+4423440D02*
X-13343217Y+4454868D01*
X-13343217Y+4486296D01*
X-13307860Y+4517724D01*
X-13201790Y+4517724D01*
X-13166434Y+4486296D01*
X-13166434Y+4454868D01*
X-13201790Y+4423440D01*
X-13307860Y+4423440D01*
X-13343217Y+4392011D01*
X-13343217Y+4360583D01*
X-13307860Y+4329155D01*
X-13201790Y+4329155D01*
X-13166434Y+4360583D01*
X-13166434Y+4392011D01*
X-13201790Y+4423440D01*
M02*
