G04 PROTEUS GERBER X2 FILE*
%TF.GenerationSoftware,Labcenter,Proteus,8.10-SP3-Build29560*%
%TF.CreationDate,2021-05-28T10:11:14+00:00*%
%TF.FileFunction,Copper,L2,Bot*%
%TF.FilePolarity,Positive*%
%TF.Part,Single*%
%TF.SameCoordinates,{1a505028-ee0b-4b35-8f16-4c51c6c7aedb}*%
%FSLAX45Y45*%
%MOMM*%
G01*
%TA.AperFunction,Conductor*%
%ADD10C,0.762000*%
%TA.AperFunction,ComponentPad*%
%ADD11C,3.048000*%
%TA.AperFunction,WasherPad*%
%ADD12C,1.397000*%
%TA.AperFunction,OtherPad,Unknown*%
%ADD13C,6.350000*%
%TA.AperFunction,Profile*%
%ADD14C,0.203200*%
%TD.AperFunction*%
D10*
X-10600000Y+9780000D02*
X-10946869Y+9780000D01*
X-12794276Y+11627407D01*
X-13499407Y+11627407D01*
X-13520000Y+11648000D01*
X-13520000Y+11848000D01*
X-13520000Y+11340000D02*
X-13520000Y+11140000D01*
X-12568552Y+11140000D01*
X-11011987Y+9583435D01*
X-10663435Y+9583435D01*
X-10600000Y+9520000D01*
X-13520000Y+10840000D02*
X-13520000Y+10640000D01*
X-12560000Y+10640000D01*
X-11760000Y+9840000D01*
X-11180000Y+9260000D01*
X-10600000Y+9260000D01*
X-13520000Y+10332000D02*
X-13520000Y+10132000D01*
X-12778397Y+10132000D01*
X-12648888Y+10002491D01*
X-11646397Y+9000000D01*
X-10600000Y+9000000D01*
X-13520000Y+9840000D02*
X-13520000Y+9640000D01*
X-12756767Y+9640000D01*
X-12683097Y+9566330D01*
X-11856767Y+8740000D01*
X-10600000Y+8740000D01*
X-13520000Y+9332000D02*
X-13520000Y+9132000D01*
X-12719137Y+9132000D01*
X-12571919Y+8984782D01*
X-12067137Y+8480000D01*
X-10600000Y+8480000D01*
X-13520000Y+8840000D02*
X-13520000Y+8640000D01*
X-12688955Y+8640000D01*
X-12623232Y+8574277D01*
X-12268955Y+8220000D01*
X-10600000Y+8220000D01*
X-13520000Y+8332000D02*
X-13520000Y+8132000D01*
X-12719743Y+8132000D01*
X-12597575Y+8009832D01*
X-12529158Y+7941415D01*
X-10669850Y+7941415D01*
X-10600000Y+7960000D01*
X-13520000Y+7840000D02*
X-13380000Y+7700000D01*
X-10600000Y+7700000D01*
X-13520000Y+6840000D02*
X-12752110Y+6840000D01*
X-12490034Y+7102076D01*
X-10677924Y+7102076D01*
X-10600000Y+7180000D01*
X-13520000Y+6332000D02*
X-12978864Y+6332000D01*
X-12375778Y+6935086D01*
X-10615086Y+6935086D01*
X-10600000Y+6920000D01*
X-13520000Y+5840000D02*
X-12952317Y+5840000D01*
X-12867958Y+5924359D01*
X-12132317Y+6660000D01*
X-10600000Y+6660000D01*
X-13520000Y+5332000D02*
X-13012082Y+5332000D01*
X-11945121Y+6398961D01*
X-10601039Y+6398961D01*
X-10600000Y+6400000D01*
X-13520000Y+4840000D02*
X-13120000Y+4840000D01*
X-11820000Y+6140000D01*
X-10600000Y+6140000D01*
X-13520000Y+7332000D02*
X-13415945Y+7436055D01*
X-13254671Y+7436055D01*
X-10603945Y+7436055D01*
X-10600000Y+7440000D01*
X-5324000Y+11792000D02*
X-5409912Y+11792000D01*
X-7465912Y+9736000D01*
X-8260000Y+9736000D01*
X-8260000Y+9780000D01*
X-8260000Y+9520000D02*
X-8260000Y+9476000D01*
X-7413015Y+9476000D01*
X-5640165Y+11248850D01*
X-5359150Y+11248850D01*
X-5324000Y+11284000D01*
X-5324000Y+10768000D02*
X-5703816Y+10768000D01*
X-7229198Y+9242618D01*
X-7229198Y+9262078D01*
X-8257922Y+9262078D01*
X-8260000Y+9260000D01*
X-5324000Y+10260000D02*
X-5384281Y+10199719D01*
X-5873305Y+10199719D01*
X-7118763Y+8954261D01*
X-8258261Y+8954261D01*
X-8260000Y+8956000D01*
X-8260000Y+9000000D01*
X-5324000Y+9744000D02*
X-5864000Y+9744000D01*
X-6912000Y+8696000D01*
X-8260000Y+8696000D01*
X-8260000Y+8740000D01*
X-5324000Y+9236000D02*
X-6121101Y+8438899D01*
X-6130986Y+8438899D01*
X-8257101Y+8438899D01*
X-8260000Y+8436000D01*
X-8260000Y+8480000D01*
X-5324000Y+8720000D02*
X-5862782Y+8181218D01*
X-5891711Y+8181218D01*
X-8254782Y+8181218D01*
X-8260000Y+8176000D01*
X-8260000Y+8220000D01*
X-5324000Y+8212000D02*
X-5594057Y+7941943D01*
X-5934658Y+7941943D01*
X-8234057Y+7941943D01*
X-8260000Y+7916000D01*
X-8260000Y+7960000D01*
X-5324000Y+7696000D02*
X-5335739Y+7684261D01*
X-5769005Y+7684261D01*
X-8231739Y+7684261D01*
X-8260000Y+7656000D01*
X-8260000Y+7700000D01*
X-5324000Y+7188000D02*
X-5469072Y+7188000D01*
X-5676976Y+7395904D01*
X-8259904Y+7395904D01*
X-8260000Y+7396000D01*
X-8260000Y+7440000D01*
X-5324000Y+6672000D02*
X-5822518Y+7170518D01*
X-6184000Y+7170518D01*
X-8225482Y+7170518D01*
X-8260000Y+7136000D01*
X-8260000Y+7180000D01*
X-5324000Y+6164000D02*
X-6020074Y+6860074D01*
X-6466222Y+6860074D01*
X-8244074Y+6860074D01*
X-8260000Y+6876000D01*
X-8260000Y+6920000D01*
X-5324000Y+5648000D02*
X-5455555Y+5648000D01*
X-6441851Y+6634296D01*
X-8241704Y+6634296D01*
X-8260000Y+6616000D01*
X-8260000Y+6660000D01*
X-5324000Y+5140000D02*
X-6536074Y+6352074D01*
X-6456814Y+6352074D01*
X-8256074Y+6352074D01*
X-8260000Y+6356000D01*
X-8260000Y+6400000D01*
X-5324000Y+4624000D02*
X-6741629Y+6041629D01*
X-6597925Y+6041629D01*
X-8205629Y+6041629D01*
X-8260000Y+6096000D01*
X-8260000Y+6140000D01*
D11*
X-5324000Y+11792000D03*
X-5324000Y+11284000D03*
X-5324000Y+10768000D03*
X-5324000Y+10260000D03*
X-5324000Y+9744000D03*
X-5324000Y+9236000D03*
X-5324000Y+8720000D03*
X-5324000Y+8212000D03*
X-5324000Y+7696000D03*
X-5324000Y+7188000D03*
X-5324000Y+6672000D03*
X-5324000Y+6164000D03*
X-5324000Y+5648000D03*
X-5324000Y+5140000D03*
X-5324000Y+4624000D03*
X-5324000Y+4116000D03*
D12*
X-10600000Y+9780000D03*
X-10600000Y+9520000D03*
X-10600000Y+9260000D03*
X-10600000Y+9000000D03*
X-10600000Y+8740000D03*
X-10600000Y+8480000D03*
X-10600000Y+8220000D03*
X-10600000Y+7960000D03*
X-10600000Y+7700000D03*
X-10600000Y+7440000D03*
X-10600000Y+7180000D03*
X-10600000Y+6920000D03*
X-10600000Y+6660000D03*
X-10600000Y+6400000D03*
X-10600000Y+6140000D03*
X-8260000Y+9780000D03*
X-8260000Y+9520000D03*
X-8260000Y+9260000D03*
X-8260000Y+9000000D03*
X-8260000Y+8740000D03*
X-8260000Y+8480000D03*
X-8260000Y+8220000D03*
X-8260000Y+7960000D03*
X-8260000Y+7700000D03*
X-8260000Y+7440000D03*
X-8260000Y+7180000D03*
X-8260000Y+6920000D03*
X-8260000Y+6660000D03*
X-8260000Y+6400000D03*
X-8260000Y+6140000D03*
D11*
X-13520000Y+11848000D03*
X-13520000Y+11340000D03*
X-13520000Y+10840000D03*
X-13520000Y+10332000D03*
X-13520000Y+9840000D03*
X-13520000Y+9332000D03*
X-13520000Y+8840000D03*
X-13520000Y+8332000D03*
X-13520000Y+7840000D03*
X-13520000Y+7332000D03*
X-13520000Y+6840000D03*
X-13520000Y+6332000D03*
X-13520000Y+5840000D03*
X-13520000Y+5332000D03*
X-13520000Y+4840000D03*
X-13520000Y+4332000D03*
D13*
X-9360000Y+11960000D03*
X-9360000Y+4160000D03*
D14*
X-14420000Y+3640000D02*
X-4480000Y+3640000D01*
X-4480000Y+12440000D01*
X-14420000Y+12440000D01*
X-14420000Y+3640000D01*
M02*
