G04 PROTEUS GERBER X2 FILE*
%TF.GenerationSoftware,Labcenter,Proteus,8.10-SP3-Build29560*%
%TF.CreationDate,2021-05-28T11:11:34+00:00*%
%TF.FileFunction,Plated,0,2,PTH*%
%TF.FilePolarity,Positive*%
%TF.Part,Single*%
%TF.SameCoordinates,{0c21fc26-f907-4c27-8847-3eb6f3dc584d}*%
%FSLAX45Y45*%
%MOMM*%
G01*
%TA.AperFunction,ComponentDrill*%
%ADD22C,1.524000*%
%TA.AperFunction,ComponentDrill*%
%ADD23C,0.812800*%
%TA.AperFunction,OtherDrill,Unknown*%
%ADD24C,3.000000*%
%TD.AperFunction*%
D22*
X-5324000Y+11792000D03*
X-5324000Y+11284000D03*
X-5324000Y+10768000D03*
X-5324000Y+10260000D03*
X-5324000Y+9744000D03*
X-5324000Y+9236000D03*
X-5324000Y+8720000D03*
X-5324000Y+8212000D03*
X-5324000Y+7696000D03*
X-5324000Y+7188000D03*
X-5324000Y+6672000D03*
X-5324000Y+6164000D03*
X-5324000Y+5648000D03*
X-5324000Y+5140000D03*
X-5324000Y+4624000D03*
X-5324000Y+4116000D03*
D23*
X-10600000Y+9780000D03*
X-10600000Y+9520000D03*
X-10600000Y+9260000D03*
X-10600000Y+9000000D03*
X-10600000Y+8740000D03*
X-10600000Y+8480000D03*
X-10600000Y+8220000D03*
X-10600000Y+7960000D03*
X-10600000Y+7700000D03*
X-10600000Y+7440000D03*
X-10600000Y+7180000D03*
X-10600000Y+6920000D03*
X-10600000Y+6660000D03*
X-10600000Y+6400000D03*
X-10600000Y+6140000D03*
X-8260000Y+9780000D03*
X-8260000Y+9520000D03*
X-8260000Y+9260000D03*
X-8260000Y+9000000D03*
X-8260000Y+8740000D03*
X-8260000Y+8480000D03*
X-8260000Y+8220000D03*
X-8260000Y+7960000D03*
X-8260000Y+7700000D03*
X-8260000Y+7440000D03*
X-8260000Y+7180000D03*
X-8260000Y+6920000D03*
X-8260000Y+6660000D03*
X-8260000Y+6400000D03*
X-8260000Y+6140000D03*
D22*
X-13520000Y+11848000D03*
X-13520000Y+11340000D03*
X-13520000Y+10840000D03*
X-13520000Y+10332000D03*
X-13520000Y+9840000D03*
X-13520000Y+9332000D03*
X-13520000Y+8840000D03*
X-13520000Y+8332000D03*
X-13520000Y+7840000D03*
X-13520000Y+7332000D03*
X-13520000Y+6840000D03*
X-13520000Y+6332000D03*
X-13520000Y+5840000D03*
X-13520000Y+5332000D03*
X-13520000Y+4840000D03*
X-13520000Y+4332000D03*
D24*
X-9360000Y+11960000D03*
X-9360000Y+4160000D03*
M02*
